<mxfile host="app.diagrams.net" agent="Mozilla/5.0 (Macintosh; Intel Mac OS X 10_15_7) AppleWebKit/537.36 (KHTML, like Gecko) Chrome/135.0.0.0 Safari/537.36" version="27.0.6">
  <diagram name="第 1 页" id="iC6CyAPzZbLOwijpjETG">
    <mxGraphModel dx="1234" dy="774" grid="1" gridSize="10" guides="1" tooltips="1" connect="1" arrows="1" fold="1" page="1" pageScale="1" pageWidth="827" pageHeight="1169" math="0" shadow="0">
      <root>
        <mxCell id="0" />
        <mxCell id="1" parent="0" />
        <mxCell id="kze3nuzcmNMjR4mC93Fa-2" value="硬件实现" style="rounded=1;whiteSpace=wrap;html=1;fontStyle=1;fillColor=#d5e8d4;strokeColor=#82b366;" parent="1" vertex="1">
          <mxGeometry x="380" y="90" width="100" height="40" as="geometry" />
        </mxCell>
        <mxCell id="kze3nuzcmNMjR4mC93Fa-12" value="" style="endArrow=none;html=1;rounded=0;exitX=1;exitY=0.5;exitDx=0;exitDy=0;entryX=0;entryY=0.5;entryDx=0;entryDy=0;" parent="1" target="DyOlxSbzqHsmyDeCPUFl-4" edge="1" source="kze3nuzcmNMjR4mC93Fa-2">
          <mxGeometry width="50" height="50" relative="1" as="geometry">
            <mxPoint x="500" y="110" as="sourcePoint" />
            <mxPoint x="590" y="90" as="targetPoint" />
          </mxGeometry>
        </mxCell>
        <mxCell id="kze3nuzcmNMjR4mC93Fa-15" value="" style="endArrow=none;html=1;rounded=0;entryX=0;entryY=0.5;entryDx=0;entryDy=0;" parent="1" edge="1" target="DyOlxSbzqHsmyDeCPUFl-5">
          <mxGeometry width="50" height="50" relative="1" as="geometry">
            <mxPoint x="480" y="110" as="sourcePoint" />
            <mxPoint x="590" y="140" as="targetPoint" />
          </mxGeometry>
        </mxCell>
        <mxCell id="DyOlxSbzqHsmyDeCPUFl-4" value="VMDq" style="rounded=1;whiteSpace=wrap;html=1;fontStyle=1;fillColor=#FF9999;strokeColor=#82b366;" vertex="1" parent="1">
          <mxGeometry x="590" y="44" width="100" height="40" as="geometry" />
        </mxCell>
        <mxCell id="DyOlxSbzqHsmyDeCPUFl-5" value="VT-x/VT-d" style="rounded=1;whiteSpace=wrap;html=1;fontStyle=1;fillColor=#FF9999;strokeColor=#82b366;" vertex="1" parent="1">
          <mxGeometry x="590" y="89" width="100" height="40" as="geometry" />
        </mxCell>
        <mxCell id="DyOlxSbzqHsmyDeCPUFl-15" value="Bypass内核，释放CPU" style="text;html=1;align=left;verticalAlign=middle;whiteSpace=wrap;rounded=0;labelBorderColor=#3333FF;" vertex="1" parent="1">
          <mxGeometry x="717" y="516" width="180" height="30" as="geometry" />
        </mxCell>
        <mxCell id="DyOlxSbzqHsmyDeCPUFl-19" value="软件模拟" style="rounded=1;whiteSpace=wrap;html=1;fontStyle=1;fillColor=#d5e8d4;strokeColor=#82b366;" vertex="1" parent="1">
          <mxGeometry x="120" y="90" width="100" height="40" as="geometry" />
        </mxCell>
        <mxCell id="DyOlxSbzqHsmyDeCPUFl-20" value="" style="endArrow=classic;html=1;rounded=0;entryX=0;entryY=0.5;entryDx=0;entryDy=0;" edge="1" parent="1" target="kze3nuzcmNMjR4mC93Fa-2">
          <mxGeometry width="50" height="50" relative="1" as="geometry">
            <mxPoint x="220" y="110" as="sourcePoint" />
            <mxPoint x="270" y="60" as="targetPoint" />
          </mxGeometry>
        </mxCell>
        <mxCell id="DyOlxSbzqHsmyDeCPUFl-21" value="&lt;span style=&quot;font-size: 12px;&quot;&gt;&lt;b&gt;硬件虚拟化和辅助能力&lt;/b&gt;&lt;/span&gt;" style="edgeLabel;html=1;align=center;verticalAlign=middle;resizable=0;points=[];" vertex="1" connectable="0" parent="DyOlxSbzqHsmyDeCPUFl-20">
          <mxGeometry x="0.1" y="1" relative="1" as="geometry">
            <mxPoint x="-4" as="offset" />
          </mxGeometry>
        </mxCell>
        <mxCell id="DyOlxSbzqHsmyDeCPUFl-22" value="内核态" style="rounded=1;whiteSpace=wrap;html=1;fontStyle=1;fillColor=#d5e8d4;strokeColor=#82b366;" vertex="1" parent="1">
          <mxGeometry x="380" y="220" width="100" height="40" as="geometry" />
        </mxCell>
        <mxCell id="DyOlxSbzqHsmyDeCPUFl-23" value="" style="endArrow=none;html=1;rounded=0;exitX=1;exitY=0.5;exitDx=0;exitDy=0;entryX=0;entryY=0.5;entryDx=0;entryDy=0;" edge="1" parent="1" source="DyOlxSbzqHsmyDeCPUFl-22" target="DyOlxSbzqHsmyDeCPUFl-25">
          <mxGeometry width="50" height="50" relative="1" as="geometry">
            <mxPoint x="500" y="240" as="sourcePoint" />
            <mxPoint x="590" y="220" as="targetPoint" />
          </mxGeometry>
        </mxCell>
        <mxCell id="DyOlxSbzqHsmyDeCPUFl-25" value="vhost-net" style="rounded=1;whiteSpace=wrap;html=1;fontStyle=1;fillColor=#FF9999;strokeColor=#82b366;" vertex="1" parent="1">
          <mxGeometry x="590" y="220" width="100" height="40" as="geometry" />
        </mxCell>
        <mxCell id="DyOlxSbzqHsmyDeCPUFl-27" value="用户态" style="rounded=1;whiteSpace=wrap;html=1;fontStyle=1;fillColor=#d5e8d4;strokeColor=#82b366;" vertex="1" parent="1">
          <mxGeometry x="120" y="220" width="100" height="40" as="geometry" />
        </mxCell>
        <mxCell id="DyOlxSbzqHsmyDeCPUFl-28" value="" style="endArrow=classic;html=1;rounded=0;entryX=0;entryY=0.5;entryDx=0;entryDy=0;" edge="1" parent="1" target="DyOlxSbzqHsmyDeCPUFl-22">
          <mxGeometry width="50" height="50" relative="1" as="geometry">
            <mxPoint x="220" y="240" as="sourcePoint" />
            <mxPoint x="270" y="190" as="targetPoint" />
          </mxGeometry>
        </mxCell>
        <mxCell id="DyOlxSbzqHsmyDeCPUFl-29" value="&lt;b&gt;&lt;font style=&quot;font-size: 12px;&quot;&gt;virtio后端卸载到&lt;/font&gt;&lt;/b&gt;" style="edgeLabel;html=1;align=center;verticalAlign=middle;resizable=0;points=[];" vertex="1" connectable="0" parent="DyOlxSbzqHsmyDeCPUFl-28">
          <mxGeometry x="0.1" y="1" relative="1" as="geometry">
            <mxPoint as="offset" />
          </mxGeometry>
        </mxCell>
        <mxCell id="DyOlxSbzqHsmyDeCPUFl-30" value="用户态" style="rounded=1;whiteSpace=wrap;html=1;fontStyle=1;fillColor=#d5e8d4;strokeColor=#82b366;" vertex="1" parent="1">
          <mxGeometry x="380" y="330" width="100" height="40" as="geometry" />
        </mxCell>
        <mxCell id="DyOlxSbzqHsmyDeCPUFl-31" value="" style="endArrow=none;html=1;rounded=0;exitX=1;exitY=0.5;exitDx=0;exitDy=0;entryX=0;entryY=0.5;entryDx=0;entryDy=0;" edge="1" parent="1" source="DyOlxSbzqHsmyDeCPUFl-30" target="DyOlxSbzqHsmyDeCPUFl-33">
          <mxGeometry width="50" height="50" relative="1" as="geometry">
            <mxPoint x="500" y="350" as="sourcePoint" />
            <mxPoint x="590" y="330" as="targetPoint" />
          </mxGeometry>
        </mxCell>
        <mxCell id="DyOlxSbzqHsmyDeCPUFl-32" value="" style="endArrow=none;html=1;rounded=0;entryX=0;entryY=0.5;entryDx=0;entryDy=0;" edge="1" parent="1" target="DyOlxSbzqHsmyDeCPUFl-34">
          <mxGeometry width="50" height="50" relative="1" as="geometry">
            <mxPoint x="480" y="350" as="sourcePoint" />
            <mxPoint x="590" y="380" as="targetPoint" />
          </mxGeometry>
        </mxCell>
        <mxCell id="DyOlxSbzqHsmyDeCPUFl-33" value="vhost-user" style="rounded=1;whiteSpace=wrap;html=1;fontStyle=1;fillColor=#FF9999;strokeColor=#82b366;" vertex="1" parent="1">
          <mxGeometry x="590" y="283" width="100" height="40" as="geometry" />
        </mxCell>
        <mxCell id="DyOlxSbzqHsmyDeCPUFl-34" value="DPDK" style="rounded=1;whiteSpace=wrap;html=1;fontStyle=1;fillColor=#FF9999;strokeColor=#82b366;" vertex="1" parent="1">
          <mxGeometry x="590" y="330" width="100" height="40" as="geometry" />
        </mxCell>
        <mxCell id="DyOlxSbzqHsmyDeCPUFl-35" value="内核态" style="rounded=1;whiteSpace=wrap;html=1;fontStyle=1;fillColor=#d5e8d4;strokeColor=#82b366;" vertex="1" parent="1">
          <mxGeometry x="120" y="330" width="100" height="40" as="geometry" />
        </mxCell>
        <mxCell id="DyOlxSbzqHsmyDeCPUFl-36" value="" style="endArrow=classic;html=1;rounded=0;entryX=0;entryY=0.5;entryDx=0;entryDy=0;" edge="1" parent="1" target="DyOlxSbzqHsmyDeCPUFl-30">
          <mxGeometry width="50" height="50" relative="1" as="geometry">
            <mxPoint x="220" y="350" as="sourcePoint" />
            <mxPoint x="270" y="300" as="targetPoint" />
          </mxGeometry>
        </mxCell>
        <mxCell id="DyOlxSbzqHsmyDeCPUFl-37" value="&lt;b&gt;&lt;font style=&quot;font-size: 12px;&quot;&gt;卸载到&lt;/font&gt;&lt;/b&gt;" style="edgeLabel;html=1;align=center;verticalAlign=middle;resizable=0;points=[];" vertex="1" connectable="0" parent="DyOlxSbzqHsmyDeCPUFl-36">
          <mxGeometry x="0.1" y="1" relative="1" as="geometry">
            <mxPoint as="offset" />
          </mxGeometry>
        </mxCell>
        <mxCell id="DyOlxSbzqHsmyDeCPUFl-38" value="硬件（网卡）" style="rounded=1;whiteSpace=wrap;html=1;fontStyle=1;fillColor=#d5e8d4;strokeColor=#82b366;" vertex="1" parent="1">
          <mxGeometry x="380" y="511" width="100" height="40" as="geometry" />
        </mxCell>
        <mxCell id="DyOlxSbzqHsmyDeCPUFl-39" value="" style="endArrow=none;html=1;rounded=0;exitX=1;exitY=0.5;exitDx=0;exitDy=0;entryX=0;entryY=0.5;entryDx=0;entryDy=0;" edge="1" parent="1" source="DyOlxSbzqHsmyDeCPUFl-38" target="DyOlxSbzqHsmyDeCPUFl-41">
          <mxGeometry width="50" height="50" relative="1" as="geometry">
            <mxPoint x="500" y="531" as="sourcePoint" />
            <mxPoint x="590" y="511" as="targetPoint" />
          </mxGeometry>
        </mxCell>
        <mxCell id="DyOlxSbzqHsmyDeCPUFl-41" value="RDMA" style="rounded=1;whiteSpace=wrap;html=1;fontStyle=1;fillColor=#FF9999;strokeColor=#82b366;" vertex="1" parent="1">
          <mxGeometry x="590" y="511" width="100" height="40" as="geometry" />
        </mxCell>
        <mxCell id="DyOlxSbzqHsmyDeCPUFl-43" value="内核态" style="rounded=1;whiteSpace=wrap;html=1;fontStyle=1;fillColor=#d5e8d4;strokeColor=#82b366;" vertex="1" parent="1">
          <mxGeometry x="120" y="511" width="100" height="40" as="geometry" />
        </mxCell>
        <mxCell id="DyOlxSbzqHsmyDeCPUFl-44" value="" style="endArrow=classic;html=1;rounded=0;entryX=0;entryY=0.5;entryDx=0;entryDy=0;" edge="1" parent="1" target="DyOlxSbzqHsmyDeCPUFl-38">
          <mxGeometry width="50" height="50" relative="1" as="geometry">
            <mxPoint x="220" y="531" as="sourcePoint" />
            <mxPoint x="270" y="481" as="targetPoint" />
          </mxGeometry>
        </mxCell>
        <mxCell id="DyOlxSbzqHsmyDeCPUFl-45" value="&lt;span style=&quot;font-size: 12px;&quot;&gt;&lt;b&gt;卸载到&lt;/b&gt;&lt;/span&gt;" style="edgeLabel;html=1;align=center;verticalAlign=middle;resizable=0;points=[];" vertex="1" connectable="0" parent="DyOlxSbzqHsmyDeCPUFl-44">
          <mxGeometry x="0.1" y="1" relative="1" as="geometry">
            <mxPoint as="offset" />
          </mxGeometry>
        </mxCell>
        <mxCell id="DyOlxSbzqHsmyDeCPUFl-46" value="智能网卡" style="rounded=1;whiteSpace=wrap;html=1;fontStyle=1;fillColor=#d5e8d4;strokeColor=#82b366;" vertex="1" parent="1">
          <mxGeometry x="380" y="631" width="100" height="40" as="geometry" />
        </mxCell>
        <mxCell id="DyOlxSbzqHsmyDeCPUFl-47" value="" style="endArrow=none;html=1;rounded=0;exitX=1;exitY=0.5;exitDx=0;exitDy=0;entryX=0;entryY=0.5;entryDx=0;entryDy=0;" edge="1" parent="1" source="DyOlxSbzqHsmyDeCPUFl-46" target="DyOlxSbzqHsmyDeCPUFl-49">
          <mxGeometry width="50" height="50" relative="1" as="geometry">
            <mxPoint x="500" y="651" as="sourcePoint" />
            <mxPoint x="590" y="631" as="targetPoint" />
          </mxGeometry>
        </mxCell>
        <mxCell id="DyOlxSbzqHsmyDeCPUFl-49" value="DPU&lt;div&gt;（银杉，玄灵）&lt;/div&gt;" style="rounded=1;whiteSpace=wrap;html=1;fontStyle=1;fillColor=#FF9999;strokeColor=#82b366;" vertex="1" parent="1">
          <mxGeometry x="590" y="631" width="100" height="40" as="geometry" />
        </mxCell>
        <mxCell id="DyOlxSbzqHsmyDeCPUFl-51" value="Host" style="rounded=1;whiteSpace=wrap;html=1;fontStyle=1;fillColor=#d5e8d4;strokeColor=#82b366;" vertex="1" parent="1">
          <mxGeometry x="120" y="631" width="100" height="40" as="geometry" />
        </mxCell>
        <mxCell id="DyOlxSbzqHsmyDeCPUFl-52" value="" style="endArrow=classic;html=1;rounded=0;entryX=0;entryY=0.5;entryDx=0;entryDy=0;" edge="1" parent="1" target="DyOlxSbzqHsmyDeCPUFl-46">
          <mxGeometry width="50" height="50" relative="1" as="geometry">
            <mxPoint x="220" y="651" as="sourcePoint" />
            <mxPoint x="270" y="601" as="targetPoint" />
          </mxGeometry>
        </mxCell>
        <mxCell id="DyOlxSbzqHsmyDeCPUFl-53" value="&lt;b&gt;&lt;font style=&quot;font-size: 12px;&quot;&gt;卸载到&lt;/font&gt;&lt;/b&gt;" style="edgeLabel;html=1;align=center;verticalAlign=middle;resizable=0;points=[];" vertex="1" connectable="0" parent="DyOlxSbzqHsmyDeCPUFl-52">
          <mxGeometry x="0.1" y="1" relative="1" as="geometry">
            <mxPoint as="offset" />
          </mxGeometry>
        </mxCell>
        <mxCell id="DyOlxSbzqHsmyDeCPUFl-55" value="内核" style="rounded=1;whiteSpace=wrap;html=1;fontStyle=1;fillColor=#d5e8d4;strokeColor=#82b366;" vertex="1" parent="1">
          <mxGeometry x="380" y="571" width="100" height="40" as="geometry" />
        </mxCell>
        <mxCell id="DyOlxSbzqHsmyDeCPUFl-56" value="" style="endArrow=none;html=1;rounded=0;exitX=1;exitY=0.5;exitDx=0;exitDy=0;entryX=0;entryY=0.5;entryDx=0;entryDy=0;" edge="1" parent="1" source="DyOlxSbzqHsmyDeCPUFl-55" target="DyOlxSbzqHsmyDeCPUFl-57">
          <mxGeometry width="50" height="50" relative="1" as="geometry">
            <mxPoint x="500" y="591" as="sourcePoint" />
            <mxPoint x="590" y="571" as="targetPoint" />
          </mxGeometry>
        </mxCell>
        <mxCell id="DyOlxSbzqHsmyDeCPUFl-57" value="soft RoCEv2" style="rounded=1;whiteSpace=wrap;html=1;fontStyle=1;fillColor=#FF9999;strokeColor=#82b366;" vertex="1" parent="1">
          <mxGeometry x="590" y="571" width="100" height="40" as="geometry" />
        </mxCell>
        <mxCell id="DyOlxSbzqHsmyDeCPUFl-58" value="硬件" style="rounded=1;whiteSpace=wrap;html=1;fontStyle=1;fillColor=#d5e8d4;strokeColor=#82b366;" vertex="1" parent="1">
          <mxGeometry x="120" y="571" width="100" height="40" as="geometry" />
        </mxCell>
        <mxCell id="DyOlxSbzqHsmyDeCPUFl-59" value="" style="endArrow=classic;html=1;rounded=0;entryX=0;entryY=0.5;entryDx=0;entryDy=0;" edge="1" parent="1" target="DyOlxSbzqHsmyDeCPUFl-55">
          <mxGeometry width="50" height="50" relative="1" as="geometry">
            <mxPoint x="220" y="591" as="sourcePoint" />
            <mxPoint x="270" y="541" as="targetPoint" />
          </mxGeometry>
        </mxCell>
        <mxCell id="DyOlxSbzqHsmyDeCPUFl-60" value="&lt;b&gt;&lt;font style=&quot;font-size: 12px;&quot;&gt;软件模拟网卡&lt;/font&gt;&lt;/b&gt;" style="edgeLabel;html=1;align=center;verticalAlign=middle;resizable=0;points=[];" vertex="1" connectable="0" parent="DyOlxSbzqHsmyDeCPUFl-59">
          <mxGeometry x="0.1" y="1" relative="1" as="geometry">
            <mxPoint as="offset" />
          </mxGeometry>
        </mxCell>
        <mxCell id="DyOlxSbzqHsmyDeCPUFl-61" value="Bypass内核，消耗CPU" style="text;html=1;align=left;verticalAlign=middle;whiteSpace=wrap;rounded=0;labelBorderColor=#3333FF;" vertex="1" parent="1">
          <mxGeometry x="717" y="335" width="180" height="30" as="geometry" />
        </mxCell>
        <mxCell id="DyOlxSbzqHsmyDeCPUFl-64" value="在网卡上实现队列管理" style="text;html=1;align=left;verticalAlign=middle;whiteSpace=wrap;rounded=0;labelBorderColor=#3333FF;" vertex="1" parent="1">
          <mxGeometry x="717" y="49" width="180" height="30" as="geometry" />
        </mxCell>
        <mxCell id="DyOlxSbzqHsmyDeCPUFl-65" value="SPDK" style="rounded=1;whiteSpace=wrap;html=1;fontStyle=1;fillColor=#FF9999;strokeColor=#82b366;" vertex="1" parent="1">
          <mxGeometry x="590" y="377" width="100" height="40" as="geometry" />
        </mxCell>
        <mxCell id="DyOlxSbzqHsmyDeCPUFl-67" value="" style="endArrow=none;html=1;rounded=0;entryX=0;entryY=0.5;entryDx=0;entryDy=0;exitX=1;exitY=0.5;exitDx=0;exitDy=0;" edge="1" parent="1" source="DyOlxSbzqHsmyDeCPUFl-30" target="DyOlxSbzqHsmyDeCPUFl-65">
          <mxGeometry width="50" height="50" relative="1" as="geometry">
            <mxPoint x="470" y="390" as="sourcePoint" />
            <mxPoint x="660" y="370" as="targetPoint" />
          </mxGeometry>
        </mxCell>
        <mxCell id="DyOlxSbzqHsmyDeCPUFl-68" value="&lt;span style=&quot;caret-color: rgb(0, 0, 0); font-family: -webkit-standard;&quot;&gt;&lt;font style=&quot;font-size: 12px;&quot;&gt;NVMe-oF可以借助RDMA&lt;/font&gt;&lt;/span&gt;" style="text;html=1;align=left;verticalAlign=middle;whiteSpace=wrap;rounded=0;labelBorderColor=#3333FF;" vertex="1" parent="1">
          <mxGeometry x="717" y="384" width="180" height="30" as="geometry" />
        </mxCell>
        <mxCell id="DyOlxSbzqHsmyDeCPUFl-69" value="VF" style="rounded=1;whiteSpace=wrap;html=1;fontStyle=1;fillColor=#d5e8d4;strokeColor=#82b366;" vertex="1" parent="1">
          <mxGeometry x="380" y="450" width="100" height="40" as="geometry" />
        </mxCell>
        <mxCell id="DyOlxSbzqHsmyDeCPUFl-70" value="" style="endArrow=none;html=1;rounded=0;exitX=1;exitY=0.5;exitDx=0;exitDy=0;entryX=0;entryY=0.5;entryDx=0;entryDy=0;" edge="1" parent="1" source="DyOlxSbzqHsmyDeCPUFl-69" target="DyOlxSbzqHsmyDeCPUFl-71">
          <mxGeometry width="50" height="50" relative="1" as="geometry">
            <mxPoint x="500" y="470" as="sourcePoint" />
            <mxPoint x="590" y="450" as="targetPoint" />
          </mxGeometry>
        </mxCell>
        <mxCell id="DyOlxSbzqHsmyDeCPUFl-71" value="&lt;span style=&quot;caret-color: rgb(0, 0, 0); font-family: -webkit-standard; font-size: medium; font-weight: 400; text-align: start;&quot;&gt;​&lt;/span&gt;&lt;strong style=&quot;caret-color: rgb(0, 0, 0); text-align: start;&quot;&gt;SR-IOV&lt;/strong&gt;&lt;span style=&quot;caret-color: rgb(0, 0, 0); font-family: -webkit-standard; font-size: medium; font-weight: 400; text-align: start;&quot;&gt;​&lt;/span&gt;" style="rounded=1;whiteSpace=wrap;html=1;fontStyle=1;fillColor=#FF9999;strokeColor=#82b366;" vertex="1" parent="1">
          <mxGeometry x="590" y="450" width="100" height="40" as="geometry" />
        </mxCell>
        <mxCell id="DyOlxSbzqHsmyDeCPUFl-72" value="PF" style="rounded=1;whiteSpace=wrap;html=1;fontStyle=1;fillColor=#d5e8d4;strokeColor=#82b366;" vertex="1" parent="1">
          <mxGeometry x="120" y="450" width="100" height="40" as="geometry" />
        </mxCell>
        <mxCell id="DyOlxSbzqHsmyDeCPUFl-73" value="" style="endArrow=classic;html=1;rounded=0;entryX=0;entryY=0.5;entryDx=0;entryDy=0;" edge="1" parent="1" target="DyOlxSbzqHsmyDeCPUFl-69">
          <mxGeometry width="50" height="50" relative="1" as="geometry">
            <mxPoint x="220" y="470" as="sourcePoint" />
            <mxPoint x="270" y="420" as="targetPoint" />
          </mxGeometry>
        </mxCell>
        <mxCell id="DyOlxSbzqHsmyDeCPUFl-74" value="&lt;b&gt;&lt;font style=&quot;font-size: 12px;&quot;&gt;PCIe硬件虚拟化&lt;/font&gt;&lt;/b&gt;" style="edgeLabel;html=1;align=center;verticalAlign=middle;resizable=0;points=[];" vertex="1" connectable="0" parent="DyOlxSbzqHsmyDeCPUFl-73">
          <mxGeometry x="0.1" y="1" relative="1" as="geometry">
            <mxPoint as="offset" />
          </mxGeometry>
        </mxCell>
        <mxCell id="DyOlxSbzqHsmyDeCPUFl-75" value="VT-x/VT-d" style="rounded=1;whiteSpace=wrap;html=1;fontStyle=1;fillColor=#FF9999;strokeColor=#82b366;" vertex="1" parent="1">
          <mxGeometry x="590" y="135" width="100" height="40" as="geometry" />
        </mxCell>
        <mxCell id="DyOlxSbzqHsmyDeCPUFl-76" value="" style="endArrow=none;html=1;rounded=0;entryX=0;entryY=0.5;entryDx=0;entryDy=0;" edge="1" parent="1" target="DyOlxSbzqHsmyDeCPUFl-75">
          <mxGeometry width="50" height="50" relative="1" as="geometry">
            <mxPoint x="480" y="110" as="sourcePoint" />
            <mxPoint x="700" y="130" as="targetPoint" />
          </mxGeometry>
        </mxCell>
        <mxCell id="DyOlxSbzqHsmyDeCPUFl-78" value="CPU虚拟化" style="text;html=1;align=left;verticalAlign=middle;resizable=0;points=[];autosize=1;strokeColor=none;fillColor=none;labelBorderColor=#3333FF;" vertex="1" parent="1">
          <mxGeometry x="717" y="88" width="80" height="30" as="geometry" />
        </mxCell>
        <mxCell id="DyOlxSbzqHsmyDeCPUFl-79" value="I/O虚拟化" style="text;html=1;align=left;verticalAlign=middle;resizable=0;points=[];autosize=1;strokeColor=none;fillColor=none;labelBorderColor=#3333FF;" vertex="1" parent="1">
          <mxGeometry x="717" y="135" width="80" height="30" as="geometry" />
        </mxCell>
        <mxCell id="DyOlxSbzqHsmyDeCPUFl-80" value="软件模拟RDMA网卡" style="text;html=1;align=left;verticalAlign=middle;whiteSpace=wrap;rounded=0;labelBorderColor=#3333FF;" vertex="1" parent="1">
          <mxGeometry x="717" y="571" width="180" height="30" as="geometry" />
        </mxCell>
      </root>
    </mxGraphModel>
  </diagram>
</mxfile>
